<svg version="1.1" xmlns="http://www.w3.org/2000/svg" viewBox="0 0 319.3915625212603 135.6446242559528" width="319.3915625212603" height="135.6446242559528">
  <!-- svg-source:excalidraw -->
  
  <defs>
    <style class="style-fonts">
      @font-face {
        font-family: "Virgil";
        src: url("https://excalidraw.com/Virgil.woff2");
      }
      @font-face {
        font-family: "Cascadia";
        src: url("https://excalidraw.com/Cascadia.woff2");
      }
    </style>
  </defs>
  <rect x="0" y="0" width="319.3915625212603" height="135.6446242559528" fill="#ffffff"></rect><g stroke-linecap="round" transform="translate(19.384363031644398 12.496450571647557) rotate(0 14.128231250151202 15.502856190673889)"><path d="M17.04 0.16 C20.01 0.48, 23.35 3.36, 25.2 5.94 C27.06 8.51, 28.12 12.26, 28.18 15.61 C28.23 18.96, 27.49 23.36, 25.56 26.03 C23.62 28.71, 19.72 31.34, 16.56 31.68 C13.4 32.03, 9.07 29.83, 6.62 28.1 C4.17 26.37, 2.91 24.21, 1.85 21.3 C0.79 18.39, -0.54 13.98, 0.25 10.65 C1.04 7.32, 3.78 3.17, 6.59 1.32 C9.39 -0.53, 14.84 -0.46, 17.08 -0.45 C19.32 -0.44, 19.98 1.05, 20.03 1.37 M15.73 0.99 C18.33 1.49, 21.66 4.09, 23.82 6.78 C25.98 9.46, 28.64 13.89, 28.69 17.07 C28.75 20.26, 26.36 23.8, 24.15 25.88 C21.94 27.95, 18.33 29.2, 15.42 29.5 C12.52 29.8, 9.1 29.42, 6.7 27.67 C4.31 25.92, 1.89 22.2, 1.07 18.99 C0.25 15.78, 0.83 11.12, 1.79 8.42 C2.74 5.72, 4.06 3.95, 6.79 2.79 C9.51 1.63, 16.6 1.65, 18.14 1.46 C19.69 1.27, 16.07 1.79, 16.05 1.65" stroke="#000000" stroke-width="2" fill="none"></path></g><g stroke-linecap="round"><g transform="translate(32.06567788923553 43.59551156540192) rotate(0 -0.5953944877015829 18.11603134641653)"><path d="M-0.38 0.37 C-0.85 6.49, -1.72 30.75, -1.77 36.72 M1.62 -0.49 C0.88 5.28, -2.38 28.54, -2.81 34.87" stroke="#000000" stroke-width="2" fill="none"></path></g></g><mask></mask><g stroke-linecap="round"><g transform="translate(30.540770625440928 80.8079214012082) rotate(0 6.971811253635224 10.84159640485781)"><path d="M0.37 -0.18 C2.85 3.72, 12.52 19.2, 14.85 23 M-0.9 -1.32 C1.47 2.29, 11.76 17.71, 14.17 21.36" stroke="#000000" stroke-width="2" fill="none"></path></g></g><mask></mask><g stroke-linecap="round"><g transform="translate(28.563245778400415 79.3247967067523) rotate(0 -5.995204267664803 10.871840424076346)"><path d="M-0.18 0.51 C-2 3.87, -9.42 17.02, -11.35 20.49 M-1.73 -0.26 C-3.6 3.26, -10.07 18.73, -11.81 22.01" stroke="#000000" stroke-width="2" fill="none"></path></g></g><mask></mask><g stroke-linecap="round"><g transform="translate(18.346532905914728 50.65650271387017) rotate(0 6.608300860168697 7.130970593691757)"><path d="M0.51 0.92 C2.77 3.26, 11.53 11.85, 13.9 13.91 M-0.68 0.35 C1.38 2.36, 10.43 9.71, 12.93 12.07" stroke="#000000" stroke-width="2" fill="none"></path></g></g><mask></mask><g stroke-linecap="round"><g transform="translate(33.15457541609112 63.74562128349589) rotate(0 10.274263377441343 -6.129465678200056)"><path d="M0.92 -0.03 C4.38 -1.87, 17.43 -8.73, 20.61 -10.52 M-0.06 -1.09 C3.31 -3.31, 16.74 -10.27, 19.95 -12.23" stroke="#000000" stroke-width="2" fill="none"></path></g></g><mask></mask><g stroke-linecap="round"><g transform="translate(45.097496823067786 20.682333666446084) rotate(0 -11.353471488398213 5.923783839748897)"><path d="M-0.03 0.55 C-1.2 1.29, -3.37 5, -6.51 5.37 C-9.64 5.74, -16.17 1.78, -18.87 2.75 C-21.56 3.71, -22.07 9.84, -22.68 11.16 M-1.5 -0.21 C-2.8 0.64, -4.06 6.71, -7.04 6.86 C-10.01 7, -16.87 -0.21, -19.35 0.66 C-21.82 1.53, -21.24 10.4, -21.91 12.06" stroke="#000000" stroke-width="2" fill="none"></path></g></g><mask></mask><g stroke-linecap="round"><g transform="translate(21.272349829668883 20.779395444869806) rotate(0 -4.757217828783382 7.226194735093703)"><path d="M0.55 0.79 C0.22 0.18, -0.22 -2.86, -1.03 -3.69 C-1.85 -4.52, -2.87 -5.35, -4.35 -4.17 C-5.84 -3, -9.36 -0.81, -9.93 3.35 C-10.51 7.52, -9.02 19.33, -7.81 20.85 C-6.59 22.37, -3.84 15.93, -2.64 12.48 C-1.44 9.03, -1 2.41, -0.6 0.15 M-0.63 0.16 C-1.2 -0.8, -1.32 -4.5, -2.03 -5.53 C-2.73 -6.55, -3.55 -7.15, -4.86 -5.99 C-6.17 -4.83, -9.69 -3.02, -9.89 1.41 C-10.09 5.85, -7 18.92, -6.07 20.61 C-5.15 22.3, -5.29 15.17, -4.33 11.55 C-3.36 7.93, -0.76 0.54, -0.27 -1.12" stroke="#000000" stroke-width="2" fill="none"></path></g></g><mask></mask><g stroke-linecap="round" transform="translate(12.418877766113155 42.66783554560402) rotate(18.529685470617636 3.9721192520347586 8.259374904530763)"><path d="M-0.06 0.36 C2.69 0.61, 4.47 0.72, 7.37 -0.79 M0.05 -0.08 C2.72 -0.22, 5.79 0.43, 7.97 0 M8.64 -1.56 C8.71 2.45, 8.84 8.66, 8.98 16.05 M8.02 -0.52 C8.1 4.21, 8.28 9.11, 7.52 17.08 M8.47 17.14 C4.35 16.25, 2.6 16.75, 0.35 16.19 M7.8 16.54 C5.69 16.6, 4.04 16.27, -0.35 16.44 M-1.51 16.16 C0.45 9.26, -1.22 5.56, 1.51 -0.18 M-0.35 17.21 C0.17 10.29, -0.64 4.31, -0.65 -0.52" stroke="#000000" stroke-width="1" fill="none"></path></g><g stroke-linecap="round" transform="translate(170.13021579506972 10) rotate(0 49.162946428571445 41.02957589285714)"><path d="M20.51 0 M20.51 0 C35.05 1.03, 53.14 -0.82, 77.81 0 M20.51 0 C41.93 -0.88, 62.86 0.39, 77.81 0 M77.81 0 C93.41 -0.37, 98.33 8.19, 98.33 20.51 M77.81 0 C91.78 -1.69, 96.71 8.89, 98.33 20.51 M98.33 20.51 C99.2 29.63, 96.5 40.75, 98.33 61.54 M98.33 20.51 C98.59 30.54, 98 43.03, 98.33 61.54 M98.33 61.54 C97.41 76.96, 89.59 81.83, 77.81 82.06 M98.33 61.54 C99.49 74.19, 90.39 81.31, 77.81 82.06 M77.81 82.06 C59.09 83.9, 40.83 79.95, 20.51 82.06 M77.81 82.06 C55.42 82.68, 33.37 82.59, 20.51 82.06 M20.51 82.06 C8 80.82, -1.83 74.25, 0 61.54 M20.51 82.06 C7.16 84.02, 1.22 74.59, 0 61.54 M0 61.54 C-1.1 43.56, 1.73 29.19, 0 20.51 M0 61.54 C-0.59 46.21, 1.23 32.75, 0 20.51 M0 20.51 C-1.45 7.82, 7.83 -1.39, 20.51 0 M0 20.51 C-0.42 8.76, 5.97 2.24, 20.51 0" stroke="#000000" stroke-width="1" fill="none"></path></g><g transform="translate(189.79316222364127 32.02957589285714) rotate(0 29.5 19)"><text x="29.5" y="15" font-family="Helvetica, Segoe UI Emoji" font-size="16px" fill="#000000" text-anchor="middle" style="white-space: pre;" direction="ltr">Account</text><text x="29.5" y="34" font-family="Helvetica, Segoe UI Emoji" font-size="16px" fill="#000000" text-anchor="middle" style="white-space: pre;" direction="ltr">A</text></g><g stroke-linecap="round"><g transform="translate(60.52816641647837 59.31557985834621) rotate(0 45.1339859988193 0.05874508901003139)"><path d="M0 0 C15.04 0.02, 75.22 0.1, 90.27 0.12 M0 0 C15.04 0.02, 75.22 0.1, 90.27 0.12" stroke="#000000" stroke-width="1" fill="none"></path></g><g transform="translate(60.52816641647837 59.31557985834621) rotate(0 45.1339859988193 0.05874508901003139)"><path d="M62.06 10.34 C67.86 8.24, 73.65 6.14, 90.27 0.12 M62.06 10.34 C68.59 7.97, 75.13 5.61, 90.27 0.12" stroke="#000000" stroke-width="1" fill="none"></path></g><g transform="translate(60.52816641647837 59.31557985834621) rotate(0 45.1339859988193 0.05874508901003139)"><path d="M62.09 -10.18 C67.88 -8.06, 73.66 -5.95, 90.27 0.12 M62.09 -10.18 C68.61 -7.8, 75.14 -5.41, 90.27 0.12" stroke="#000000" stroke-width="1" fill="none"></path></g></g><mask></mask><g transform="translate(140.3915625212603 106.6446242559528) rotate(0 84.5 9.5)"><text x="0" y="15" font-family="Helvetica, Segoe UI Emoji" font-size="16px" fill="#000000" text-anchor="start" style="white-space: pre;" direction="ltr">{ 10 MATIC, 5 ETH, ... }</text></g></svg>