<svg version="1.1" xmlns="http://www.w3.org/2000/svg" viewBox="0 0 718.8523065476186 135.64462425595275" width="718.8523065476186" height="135.64462425595275">
  <!-- svg-source:excalidraw -->
  
  <defs>
    <style class="style-fonts">
      @font-face {
        font-family: "Virgil";
        src: url("https://excalidraw.com/Virgil.woff2");
      }
      @font-face {
        font-family: "Cascadia";
        src: url("https://excalidraw.com/Cascadia.woff2");
      }
    </style>
  </defs>
  <rect x="0" y="0" width="718.8523065476186" height="135.64462425595275" fill="#ffffff"></rect><g stroke-linecap="round" transform="translate(39.73865327380918 10) rotate(0 49.162946428571445 41.02957589285717)"><path d="M20.51 0 M20.51 0 C41.97 -0.68, 60.22 -1.47, 77.81 0 M20.51 0 C35.12 -0.05, 48.95 -0.8, 77.81 0 M77.81 0 C92.72 1.43, 99.19 7.44, 98.33 20.51 M77.81 0 C89.81 0.03, 96.04 8.32, 98.33 20.51 M98.33 20.51 C100.09 31.85, 97.69 40.56, 98.33 61.54 M98.33 20.51 C98.14 28.92, 99.32 39.86, 98.33 61.54 M98.33 61.54 C99.42 74.27, 90.9 82.84, 77.81 82.06 M98.33 61.54 C99.77 76.39, 90.54 80.58, 77.81 82.06 M77.81 82.06 C58.66 82.37, 44.31 81.83, 20.51 82.06 M77.81 82.06 C62.59 81.79, 47.02 81.34, 20.51 82.06 M20.51 82.06 C5.65 82.27, 1.39 76.93, 0 61.54 M20.51 82.06 C7.02 83.81, -1.69 73.94, 0 61.54 M0 61.54 C-0.52 53.53, -1.64 44.8, 0 20.51 M0 61.54 C0.53 46.18, 0.74 31.36, 0 20.51 M0 20.51 C-0.82 6.2, 4.9 -1.71, 20.51 0 M0 20.51 C1.91 5.88, 7.23 -1.76, 20.51 0" stroke="#000000" stroke-width="1" fill="none"></path></g><g transform="translate(59.401599702380736 32.02957589285711) rotate(0 29.5 19)"><text x="29.5" y="15" font-family="Helvetica, Segoe UI Emoji" font-size="16px" fill="#000000" text-anchor="middle" style="white-space: pre;" direction="ltr">Account</text><text x="29.5" y="34" font-family="Helvetica, Segoe UI Emoji" font-size="16px" fill="#000000" text-anchor="middle" style="white-space: pre;" direction="ltr">A</text></g><g transform="translate(10 106.64462425595275) rotate(0 80 9.5)"><text x="0" y="15" font-family="Helvetica, Segoe UI Emoji" font-size="16px" fill="#000000" text-anchor="start" style="white-space: pre;" direction="ltr">{ 5 MATIC, 5 ETH, ... }</text></g><g transform="translate(340.49934895833303 89.02478608630963) rotate(0 42 9.5)"><text x="0" y="15" font-family="Helvetica, Segoe UI Emoji" font-size="16px" fill="#000000" text-anchor="start" style="white-space: pre;" direction="ltr">{ 5 MATIC }</text></g><g stroke-linecap="round" transform="translate(304.65950520833303 26.61788504464289) rotate(0 75.65104166666663 21.336263020833314)"><path d="M0 0 C39.2 0, 78.4 0, 151.3 0 M0 0 C56.19 0, 112.38 0, 151.3 0 M151.3 0 C151.3 14.23, 151.3 28.47, 151.3 42.67 M151.3 0 C151.3 10.77, 151.3 21.54, 151.3 42.67 M151.3 42.67 C107.56 42.67, 63.82 42.67, 0 42.67 M151.3 42.67 C104.33 42.67, 57.37 42.67, 0 42.67 M0 42.67 C0 27.3, 0 11.93, 0 0 M0 42.67 C0 31.24, 0 19.8, 0 0" stroke="#000000" stroke-width="1" fill="none"></path></g><g transform="translate(362.310546875 38.45414806547615) rotate(0 18 9.5)"><text x="18" y="15" font-family="Helvetica, Segoe UI Emoji" font-size="16px" fill="#000000" text-anchor="middle" style="white-space: pre;" direction="ltr">Note</text></g><g stroke-linecap="round" transform="translate(610.5264136904757 10) rotate(0 49.162946428571445 41.02957589285717)"><path d="M20.51 0 M20.51 0 C41.04 -1.23, 60.34 1.01, 77.81 0 M20.51 0 C36.16 0.13, 49.92 -0.38, 77.81 0 M77.81 0 C91.54 1.36, 99.7 6.66, 98.33 20.51 M77.81 0 C89.38 -0.9, 96.22 7.65, 98.33 20.51 M98.33 20.51 C97.43 30.81, 99.13 39.44, 98.33 61.54 M98.33 20.51 C98.87 34.18, 98.81 48.08, 98.33 61.54 M98.33 61.54 C96.72 73.56, 92.99 82.36, 77.81 82.06 M98.33 61.54 C98.59 76.72, 89.29 83.04, 77.81 82.06 M77.81 82.06 C55.41 83.3, 33.88 80.65, 20.51 82.06 M77.81 82.06 C62.42 81.61, 47.36 81.3, 20.51 82.06 M20.51 82.06 C8.68 83.7, -1.47 76.81, 0 61.54 M20.51 82.06 C5.86 81.18, 1.27 74.48, 0 61.54 M0 61.54 C1.22 46.01, 0.8 29.58, 0 20.51 M0 61.54 C0.51 45.54, 0.09 30.08, 0 20.51 M0 20.51 C-1.43 7.63, 4.95 -1.33, 20.51 0 M0 20.51 C-1.41 6.54, 6.71 -1.17, 20.51 0" stroke="#000000" stroke-width="1" fill="none"></path></g><g transform="translate(630.1893601190473 32.02957589285711) rotate(0 29.5 19)"><text x="29.5" y="15" font-family="Helvetica, Segoe UI Emoji" font-size="16px" fill="#000000" text-anchor="middle" style="white-space: pre;" direction="ltr">Account</text><text x="29.5" y="34" font-family="Helvetica, Segoe UI Emoji" font-size="16px" fill="#000000" text-anchor="middle" style="white-space: pre;" direction="ltr">B</text></g><g transform="translate(615.477864583333 106.64462425595275) rotate(0 42 9.5)"><text x="0" y="15" font-family="Helvetica, Segoe UI Emoji" font-size="16px" fill="#000000" text-anchor="start" style="white-space: pre;" direction="ltr">{ 0 MATIC }</text></g></svg>