<svg version="1.1" xmlns="http://www.w3.org/2000/svg" viewBox="0 0 310.0362825163336 136.9685513015345" width="310.0362825163336" height="136.9685513015345">
  <!-- svg-source:excalidraw -->
  
  <defs>
    <style class="style-fonts">
      @font-face {
        font-family: "Virgil";
        src: url("https://excalidraw.com/Virgil.woff2");
      }
      @font-face {
        font-family: "Cascadia";
        src: url("https://excalidraw.com/Cascadia.woff2");
      }
    </style>
  </defs>
  <rect x="0" y="0" width="310.0362825163336" height="136.9685513015345" fill="#ffffff"></rect><g stroke-linecap="round" transform="translate(10 11.32392704558174) rotate(0 49.162946428571445 41.02957589285711)"><path d="M20.51 0 M20.51 0 C43 0.83, 61.35 0.84, 77.81 0 M20.51 0 C33.46 -0.37, 47.82 -0.91, 77.81 0 M77.81 0 C92.7 -0.32, 98.39 5.18, 98.33 20.51 M77.81 0 C92.58 -0.34, 99.19 4.58, 98.33 20.51 M98.33 20.51 C97.37 34.72, 96.81 51.91, 98.33 61.54 M98.33 20.51 C97.6 31.63, 97.84 43.82, 98.33 61.54 M98.33 61.54 C98.1 76.32, 90.98 82.74, 77.81 82.06 M98.33 61.54 C97.11 74.86, 89.88 83.38, 77.81 82.06 M77.81 82.06 C57.04 81.94, 36.79 83.19, 20.51 82.06 M77.81 82.06 C56.12 83.46, 36.46 83.41, 20.51 82.06 M20.51 82.06 C6.06 83.53, -1.49 77.09, 0 61.54 M20.51 82.06 C8.56 80.83, -0.9 75.76, 0 61.54 M0 61.54 C0.45 52.33, -1.3 38.28, 0 20.51 M0 61.54 C0.63 49.83, -0.66 37.8, 0 20.51 M0 20.51 C-0.5 8.26, 8.56 1.45, 20.51 0 M0 20.51 C0.26 5.19, 8.58 -0.64, 20.51 0" stroke="#000000" stroke-width="1" fill="none"></path></g><g transform="translate(29.66294642857156 33.35350293843862) rotate(0 29.5 19)"><text x="29.5" y="15" font-family="Helvetica, Segoe UI Emoji" font-size="16px" fill="#000000" text-anchor="middle" style="white-space: pre;" direction="ltr">Account</text><text x="29.5" y="34" font-family="Helvetica, Segoe UI Emoji" font-size="16px" fill="#000000" text-anchor="middle" style="white-space: pre;" direction="ltr">B</text></g><g transform="translate(14.951450892857792 107.96855130153449) rotate(0 42 9.5)"><text x="0" y="15" font-family="Helvetica, Segoe UI Emoji" font-size="16px" fill="#000000" text-anchor="start" style="white-space: pre;" direction="ltr">{ 5 MATIC }</text></g><g stroke-linecap="round" transform="translate(251.52402658173582 16.912975142653067) rotate(0 18.37396254880855 16.91147840549104)"><path d="M12.19 0.05 C15.62 -1.17, 20.73 -0.69, 24.51 0.68 C28.29 2.06, 32.87 4.99, 34.87 8.29 C36.87 11.6, 37.53 16.84, 36.51 20.49 C35.49 24.14, 31.75 27.87, 28.73 30.19 C25.71 32.51, 22.06 34.49, 18.41 34.41 C14.76 34.33, 9.85 32.24, 6.82 29.71 C3.79 27.18, 0.77 23.01, 0.21 19.23 C-0.34 15.46, 1.34 10.26, 3.48 7.06 C5.63 3.85, 11.25 0.98, 13.06 -0.01 C14.87 -1.01, 14.02 0.8, 14.34 1.1 M24.3 1.75 C27.91 2.85, 32.53 6.66, 34.45 9.63 C36.37 12.59, 36.77 16.04, 35.83 19.56 C34.89 23.07, 31.66 28.18, 28.82 30.71 C25.98 33.24, 22.31 35.06, 18.78 34.74 C15.25 34.42, 10.66 31.31, 7.63 28.8 C4.59 26.3, 1.43 23.37, 0.59 19.69 C-0.25 16.02, 0.8 9.87, 2.6 6.77 C4.4 3.67, 7.51 2.09, 11.38 1.08 C15.26 0.06, 23.73 0.84, 25.86 0.68 C27.99 0.52, 24.26 -0.14, 24.14 0.12" stroke="#000000" stroke-width="2" fill="none"></path></g><g stroke-linecap="round"><g transform="translate(267.85375302240095 50.74538065986076) rotate(0 -1.3918654243683477 20.14137498928949)"><path d="M-0.98 -0.76 C-1.5 5.9, -2.05 33.21, -2.28 40.02 M0.7 1.46 C-0.09 8.24, -2.79 34.47, -3.48 41.04" stroke="#000000" stroke-width="2" fill="none"></path></g></g><mask></mask><g stroke-linecap="round"><g transform="translate(266.3037326017941 92.6477104310352) rotate(0 8.342259222756411 11.93125461785462)"><path d="M-0.76 -0.48 C1.78 3.75, 12.57 20.31, 15.25 24.41 M1.05 -1.78 C3.94 2.69, 14.67 21.18, 17.44 25.64" stroke="#000000" stroke-width="2" fill="none"></path></g></g><mask></mask><g stroke-linecap="round"><g transform="translate(266.2062382656636 91.5357407608144) rotate(0 -7.650468276087054 10.788463076928679)"><path d="M-0.48 -0.99 C-3.11 2.73, -14.01 17.72, -16.77 21.52 M1.47 1.11 C-0.68 5.01, -11.69 18.95, -14.37 22.56" stroke="#000000" stroke-width="2" fill="none"></path></g></g><mask></mask><g stroke-linecap="round"><g transform="translate(252.1551520739274 58.51619098046808) rotate(0 7.049980631427729 6.9792773435161735)"><path d="M-0.99 -0.59 C1.28 1.73, 10.51 10.93, 12.87 13.48 M0.7 1.71 C3.4 4.21, 13.2 12.14, 15.09 14.55" stroke="#000000" stroke-width="2" fill="none"></path></g></g><mask></mask><g stroke-linecap="round"><g transform="translate(267.1714708805605 72.98178258195139) rotate(0 12.72201488123551 -5.932830425018665)"><path d="M-0.59 -0.94 C3.45 -2.95, 19.52 -11.01, 23.79 -13.05 M1.3 1.19 C5.76 -0.59, 22.19 -9.61, 26.04 -11.86" stroke="#000000" stroke-width="2" fill="none"></path></g></g><mask></mask><g stroke-linecap="round"><g transform="translate(245.52582776009035 19.878748227115693) rotate(0 26.786986813991348 5.094598827634059)"><path d="M-0.94 -0.88 C7.92 1.06, 43.32 9.1, 52.14 11.07 M0.77 1.27 C10.11 2.89, 45.56 7.27, 54.51 9.12" stroke="#000000" stroke-width="2" fill="none"></path></g></g><mask></mask><g stroke-linecap="round" transform="translate(257.3317925148174 12.849912937843328) rotate(10.74366233694554 15.800488967450633 5.450457972496338)"><path d="M1.35 1.17 L29.67 -1.33 L31.04 11.33 L-0.75 12.67" stroke="none" stroke-width="0" fill="#fff"></path><path d="M-1.09 0.55 C6.58 0.56, 15.99 -1.7, 31.52 1.33 M0.03 -0.04 C12.08 -0.97, 22.18 -0.66, 31.26 0.41 M31.45 0.36 C31.09 4.68, 31.57 9.12, 31.18 10.48 M31.94 0.47 C31.33 2.58, 31.7 4.9, 31.08 10.54 M30.69 9.14 C22.93 10.17, 10.08 12.79, 1.17 11.19 M31.76 11.19 C23.88 10.57, 16.54 9.8, 0.07 10.84 M-0.59 10.28 C0.36 6.2, 0.56 2.2, 0.9 0.97 M-0.37 11.04 C0.06 7.94, -0.39 4.41, -0.21 0.26" stroke="#000000" stroke-width="2" fill="none"></path></g><g stroke-linecap="round"><g transform="translate(117.69484747023853 56.525796465224175) rotate(0 53.90950520833337 0.09765625)"><path d="M0 0 C41.96 0.08, 83.92 0.15, 107.82 0.2 M0 0 C38.8 0.07, 77.6 0.14, 107.82 0.2" stroke="#000000" stroke-width="1" fill="none"></path></g><g transform="translate(117.69484747023853 56.525796465224175) rotate(0 53.90950520833337 0.09765625)"><path d="M28.21 -10.21 C17.23 -6.24, 6.25 -2.26, 0 0 M28.21 -10.21 C18.06 -6.54, 7.91 -2.86, 0 0" stroke="#000000" stroke-width="1" fill="none"></path></g><g transform="translate(117.69484747023853 56.525796465224175) rotate(0 53.90950520833337 0.09765625)"><path d="M28.17 10.31 C17.21 6.3, 6.24 2.29, 0 0 M28.17 10.31 C18.03 6.6, 7.9 2.89, 0 0" stroke="#000000" stroke-width="1" fill="none"></path></g></g><mask></mask></svg>