<svg version="1.1" xmlns="http://www.w3.org/2000/svg" viewBox="0 0 538.6714564732138 273.2559058779758" width="538.6714564732138" height="273.2559058779758">
  <!-- svg-source:excalidraw -->
  
  <defs>
    <style class="style-fonts">
      @font-face {
        font-family: "Virgil";
        src: url("https://excalidraw.com/Virgil.woff2");
      }
      @font-face {
        font-family: "Cascadia";
        src: url("https://excalidraw.com/Cascadia.woff2");
      }
    </style>
  </defs>
  <rect x="0" y="0" width="538.6714564732138" height="273.2559058779758" fill="#ffffff"></rect><g transform="translate(45.83984375 244.2559058779758) rotate(0 42 9.5)"><text x="0" y="15" font-family="Helvetica, Segoe UI Emoji" font-size="16px" fill="#000000" text-anchor="start" style="white-space: pre;" direction="ltr">{ 5 MATIC }</text></g><g stroke-linecap="round" transform="translate(10 181.84900483630884) rotate(0 75.65104166666663 21.336263020833258)"><path d="M0 0 C44.8 0, 89.6 0, 151.3 0 M0 0 C59.64 0, 119.29 0, 151.3 0 M151.3 0 C151.3 9.26, 151.3 18.52, 151.3 42.67 M151.3 0 C151.3 8.67, 151.3 17.34, 151.3 42.67 M151.3 42.67 C120.47 42.67, 89.64 42.67, 0 42.67 M151.3 42.67 C117.03 42.67, 82.76 42.67, 0 42.67 M0 42.67 C0 30.63, 0 18.58, 0 0 M0 42.67 C0 30.36, 0 18.05, 0 0" stroke="#000000" stroke-width="1" fill="none"></path></g><g transform="translate(67.65104166666697 193.68526785714232) rotate(0 18 9.5)"><text x="18" y="15" font-family="Helvetica, Segoe UI Emoji" font-size="16px" fill="#000000" text-anchor="middle" style="white-space: pre;" direction="ltr">Note</text></g><g stroke-linecap="round" transform="translate(29.278366815476147 10) rotate(0 49.162946428571445 41.02957589285717)"><path d="M20.51 0 M20.51 0 C31.34 -1.77, 44.64 1.83, 77.81 0 M20.51 0 C39.35 -0.41, 59.22 0.19, 77.81 0 M77.81 0 C90.92 0.78, 100.11 8.52, 98.33 20.51 M77.81 0 C93.61 0.52, 96.42 7.69, 98.33 20.51 M98.33 20.51 C96.49 31.15, 97.14 46.08, 98.33 61.54 M98.33 20.51 C98.59 29.64, 98.89 39.85, 98.33 61.54 M98.33 61.54 C99.39 74.72, 92.78 83.6, 77.81 82.06 M98.33 61.54 C100.2 75.11, 89.27 82.36, 77.81 82.06 M77.81 82.06 C62.69 80.45, 45.12 80.62, 20.51 82.06 M77.81 82.06 C62.75 81.6, 47 82.5, 20.51 82.06 M20.51 82.06 C6.34 80.25, -1.2 73.49, 0 61.54 M20.51 82.06 C6.19 79.79, -0.41 74.4, 0 61.54 M0 61.54 C-0.01 49.33, -1.6 40.49, 0 20.51 M0 61.54 C0.1 49.72, 0.68 36.99, 0 20.51 M0 20.51 C-1.04 5.23, 6.2 -0.89, 20.51 0 M0 20.51 C1.72 7.44, 7.73 0.7, 20.51 0" stroke="#000000" stroke-width="1" fill="none"></path></g><g transform="translate(48.941313244047706 32.02957589285688) rotate(0 29.5 19)"><text x="29.5" y="15" font-family="Helvetica, Segoe UI Emoji" font-size="16px" fill="#000000" text-anchor="middle" style="white-space: pre;" direction="ltr">Account</text><text x="29.5" y="34" font-family="Helvetica, Segoe UI Emoji" font-size="16px" fill="#000000" text-anchor="middle" style="white-space: pre;" direction="ltr">B</text></g><g transform="translate(34.229817708333485 106.64462425595264) rotate(0 42 9.5)"><text x="0" y="15" font-family="Helvetica, Segoe UI Emoji" font-size="16px" fill="#000000" text-anchor="start" style="white-space: pre;" direction="ltr">{ 0 MATIC }</text></g><g stroke-linecap="round"><g transform="translate(186.10356212797592 52.890671502976716) rotate(0 46.80338541666663 36.83105468749994)"><path d="M0 0 C20.28 15.96, 40.56 31.92, 93.61 73.66 M0 0 C27.03 21.27, 54.07 42.55, 93.61 73.66" stroke="#000000" stroke-width="1" fill="none"></path></g></g><mask></mask><g stroke-linecap="round"><g transform="translate(187.76697358630918 197.71814546130997) rotate(0 46.89778645833326 -31.78385416666663)"><path d="M0 0 C20.31 -13.77, 40.62 -27.53, 93.8 -63.57 M0 0 C22.49 -15.24, 44.99 -30.49, 93.8 -63.57" stroke="#000000" stroke-width="1" fill="none"></path></g></g><mask></mask><g stroke-linecap="round"><g transform="translate(284.7103329613092 129.56710379464323) rotate(0 56.04329427083326 1.8294270833333712)"><path d="M0 0 C36.68 1.2, 73.36 2.39, 112.09 3.66 M0 0 C28.72 0.94, 57.45 1.88, 112.09 3.66" stroke="#000000" stroke-width="1" fill="none"></path></g><g transform="translate(284.7103329613092 129.56710379464323) rotate(0 56.04329427083326 1.8294270833333712)"><path d="M83.58 12.99 C92.91 9.94, 102.24 6.88, 112.09 3.66 M83.58 12.99 C90.88 10.6, 98.19 8.21, 112.09 3.66" stroke="#000000" stroke-width="1" fill="none"></path></g><g transform="translate(284.7103329613092 129.56710379464323) rotate(0 56.04329427083326 1.8294270833333712)"><path d="M84.25 -7.52 C93.36 -3.86, 102.47 -0.2, 112.09 3.66 M84.25 -7.52 C91.38 -4.65, 98.52 -1.79, 112.09 3.66" stroke="#000000" stroke-width="1" fill="none"></path></g></g><mask></mask><g stroke-linecap="round" transform="translate(430.3455636160709 97.99153645833292) rotate(0 49.162946428571445 41.02957589285711)"><path d="M20.51 0 M20.51 0 C36.58 0.32, 54.29 -0.57, 77.81 0 M20.51 0 C33.81 1.07, 48.28 0.36, 77.81 0 M77.81 0 C92.52 -0.31, 96.79 8.2, 98.33 20.51 M77.81 0 C92.87 1.11, 96.08 7.54, 98.33 20.51 M98.33 20.51 C97.45 34.16, 100.23 43.12, 98.33 61.54 M98.33 20.51 C97.74 32.62, 98.42 42.76, 98.33 61.54 M98.33 61.54 C96.82 76.29, 89.95 81.91, 77.81 82.06 M98.33 61.54 C98.39 74.26, 93.25 81.88, 77.81 82.06 M77.81 82.06 C57.85 82.41, 34.96 83.05, 20.51 82.06 M77.81 82.06 C56.65 82.7, 37.4 82.83, 20.51 82.06 M20.51 82.06 C7.09 81.34, -1.9 74.89, 0 61.54 M20.51 82.06 C6.8 81.9, -0.44 73.29, 0 61.54 M0 61.54 C0.8 49.22, -0.31 41.61, 0 20.51 M0 61.54 C0.5 46.71, 0.08 30.77, 0 20.51 M0 20.51 C0.82 7.55, 4.85 -1.99, 20.51 0 M0 20.51 C0.42 8.38, 8.21 -0.27, 20.51 0" stroke="#000000" stroke-width="1" fill="none"></path></g><g transform="translate(450.00851004464243 120.0211123511898) rotate(0 29.5 19)"><text x="29.5" y="15" font-family="Helvetica, Segoe UI Emoji" font-size="16px" fill="#000000" text-anchor="middle" style="white-space: pre;" direction="ltr">Account</text><text x="29.5" y="34" font-family="Helvetica, Segoe UI Emoji" font-size="16px" fill="#000000" text-anchor="middle" style="white-space: pre;" direction="ltr">B</text></g><g transform="translate(435.2970145089282 194.63616071428544) rotate(0 42 9.5)"><text x="0" y="15" font-family="Helvetica, Segoe UI Emoji" font-size="16px" fill="#000000" text-anchor="start" style="white-space: pre;" direction="ltr">{ 5 MATIC }</text></g></svg>