<svg version="1.1" xmlns="http://www.w3.org/2000/svg" viewBox="0 0 526.4388020833328 277.2012183779764" width="526.4388020833328" height="277.2012183779764">
  <!-- svg-source:excalidraw -->
  
  <defs>
    <style class="style-fonts">
      @font-face {
        font-family: "Virgil";
        src: url("https://excalidraw.com/Virgil.woff2");
      }
      @font-face {
        font-family: "Cascadia";
        src: url("https://excalidraw.com/Cascadia.woff2");
      }
    </style>
  </defs>
  <rect x="0" y="0" width="526.4388020833328" height="277.2012183779764" fill="#ffffff"></rect><g stroke-linecap="round" transform="translate(39.73865327380918 72.42838541666654) rotate(0 49.162946428571445 41.02957589285714)"><path d="M20.51 0 M20.51 0 C42.44 1.6, 63.66 -0.6, 77.81 0 M20.51 0 C38.64 -0.8, 57.63 -1.33, 77.81 0 M77.81 0 C89.86 -1.23, 97.88 6.32, 98.33 20.51 M77.81 0 C90.13 -2.05, 96.79 8.35, 98.33 20.51 M98.33 20.51 C98.76 28.26, 100.53 39.23, 98.33 61.54 M98.33 20.51 C98.62 30.05, 97.61 40.46, 98.33 61.54 M98.33 61.54 C96.81 76.16, 89.49 82.51, 77.81 82.06 M98.33 61.54 C98.43 73.39, 91.75 83.57, 77.81 82.06 M77.81 82.06 C62.21 80.88, 50.89 80.86, 20.51 82.06 M77.81 82.06 C61.88 82.21, 45.1 82.63, 20.51 82.06 M20.51 82.06 C7.17 82.34, 1.02 75.5, 0 61.54 M20.51 82.06 C6.83 83.92, 2.06 75.11, 0 61.54 M0 61.54 C1.76 54.72, 0.3 43.47, 0 20.51 M0 61.54 C0.03 48.33, 0.31 34.78, 0 20.51 M0 20.51 C-0.13 8.82, 8.54 0.89, 20.51 0 M0 20.51 C-0.6 5.5, 7.82 -0.64, 20.51 0" stroke="#000000" stroke-width="1" fill="none"></path></g><g transform="translate(59.401599702380736 94.45796130952365) rotate(0 29.5 19)"><text x="29.5" y="15" font-family="Helvetica, Segoe UI Emoji" font-size="16px" fill="#000000" text-anchor="middle" style="white-space: pre;" direction="ltr">Account</text><text x="29.5" y="34" font-family="Helvetica, Segoe UI Emoji" font-size="16px" fill="#000000" text-anchor="middle" style="white-space: pre;" direction="ltr">A</text></g><g transform="translate(10 169.0730096726193) rotate(0 84.5 9.5)"><text x="0" y="15" font-family="Helvetica, Segoe UI Emoji" font-size="16px" fill="#000000" text-anchor="start" style="white-space: pre;" direction="ltr">{ 10 MATIC, 5 ETH, ... }</text></g><g stroke-linecap="round" transform="translate(386.177455357142 10) rotate(0 49.162946428571445 41.02957589285714)"><path d="M20.51 0 M20.51 0 C33.97 1.47, 45.82 0.76, 77.81 0 M20.51 0 C39.13 -0.4, 58.71 0.83, 77.81 0 M77.81 0 C92.24 -0.47, 97.74 6.57, 98.33 20.51 M77.81 0 C93.08 -1.97, 98.52 6.14, 98.33 20.51 M98.33 20.51 C99.76 28.32, 99.59 37.3, 98.33 61.54 M98.33 20.51 C97.93 34.09, 97.87 48.32, 98.33 61.54 M98.33 61.54 C99.93 74.22, 92.56 83.3, 77.81 82.06 M98.33 61.54 C100.13 76.05, 90.17 84.07, 77.81 82.06 M77.81 82.06 C64.93 81.57, 53.62 80.75, 20.51 82.06 M77.81 82.06 C60.68 81.45, 44.51 81.61, 20.51 82.06 M20.51 82.06 C4.89 82.71, 1.86 73.28, 0 61.54 M20.51 82.06 C6.37 83.44, 0.2 73.58, 0 61.54 M0 61.54 C1.12 47.99, 1.79 34.09, 0 20.51 M0 61.54 C-0.82 51.92, 0.75 40.91, 0 20.51 M0 20.51 C-0.53 7.19, 8.3 1.34, 20.51 0 M0 20.51 C-0.27 7.83, 8.41 1.91, 20.51 0" stroke="#000000" stroke-width="1" fill="none"></path></g><g transform="translate(405.84040178571354 32.02957589285714) rotate(0 29.5 19)"><text x="29.5" y="15" font-family="Helvetica, Segoe UI Emoji" font-size="16px" fill="#000000" text-anchor="middle" style="white-space: pre;" direction="ltr">Account</text><text x="29.5" y="34" font-family="Helvetica, Segoe UI Emoji" font-size="16px" fill="#000000" text-anchor="middle" style="white-space: pre;" direction="ltr">A</text></g><g transform="translate(356.4388020833328 106.64462425595272) rotate(0 80 9.5)"><text x="0" y="15" font-family="Helvetica, Segoe UI Emoji" font-size="16px" fill="#000000" text-anchor="start" style="white-space: pre;" direction="ltr">{ 5 MATIC, 5 ETH, ... }</text></g><g transform="translate(395.39518229166583 248.20121837797635) rotate(0 42 9.5)"><text x="0" y="15" font-family="Helvetica, Segoe UI Emoji" font-size="16px" fill="#000000" text-anchor="start" style="white-space: pre;" direction="ltr">{ 5 MATIC }</text></g><g stroke-linecap="round" transform="translate(359.55533854166606 185.79431733630966) rotate(0 75.65104166666663 21.336263020833314)"><path d="M0 0 C33.54 0, 67.09 0, 151.3 0 M0 0 C34.31 0, 68.63 0, 151.3 0 M151.3 0 C151.3 16.46, 151.3 32.92, 151.3 42.67 M151.3 0 C151.3 15.82, 151.3 31.63, 151.3 42.67 M151.3 42.67 C106.35 42.67, 61.4 42.67, 0 42.67 M151.3 42.67 C115.6 42.67, 79.9 42.67, 0 42.67 M0 42.67 C0 30.1, 0 17.53, 0 0 M0 42.67 C0 32.99, 0 23.31, 0 0" stroke="#000000" stroke-width="1" fill="none"></path></g><g transform="translate(417.2063802083328 197.63058035714297) rotate(0 18 9.5)"><text x="18" y="15" font-family="Helvetica, Segoe UI Emoji" font-size="16px" fill="#000000" text-anchor="middle" style="white-space: pre;" direction="ltr">Note</text></g><g stroke-linecap="round"><g transform="translate(150.8736979166663 114.7786923363096) rotate(0 58.73209635416674 0.5240885416666856)"><path d="M0 0 C32.62 0.29, 65.24 0.58, 117.46 1.05 M0 0 C38.66 0.34, 77.32 0.69, 117.46 1.05" stroke="#000000" stroke-width="1" fill="none"></path></g></g><mask></mask><g stroke-linecap="round"><g transform="translate(270.3365885416663 114.74288504464297) rotate(0 34.34244791666674 -20.462239583333343)"><path d="M0 0 C15.57 -9.28, 31.13 -18.55, 68.68 -40.92 M0 0 C19.78 -11.79, 39.57 -23.58, 68.68 -40.92" stroke="#000000" stroke-width="1" fill="none"></path></g><g transform="translate(270.3365885416663 114.74288504464297) rotate(0 34.34244791666674 -20.462239583333343)"><path d="M49.72 -17.68 C54.02 -22.95, 58.32 -28.22, 68.68 -40.92 M49.72 -17.68 C55.18 -24.38, 60.65 -31.07, 68.68 -40.92" stroke="#000000" stroke-width="1" fill="none"></path></g><g transform="translate(270.3365885416663 114.74288504464297) rotate(0 34.34244791666674 -20.462239583333343)"><path d="M39.22 -35.31 C45.89 -36.58, 52.57 -37.85, 68.68 -40.92 M39.22 -35.31 C47.7 -36.93, 56.19 -38.54, 68.68 -40.92" stroke="#000000" stroke-width="1" fill="none"></path></g></g><mask></mask><g stroke-linecap="round"><g transform="translate(270.75325520833303 117.80929129464297) rotate(0 28.986002604166856 22.66601562499997)"><path d="M0 0 C18.16 14.2, 36.32 28.4, 57.97 45.33 M0 0 C18.95 14.82, 37.9 29.63, 57.97 45.33" stroke="#000000" stroke-width="1" fill="none"></path></g><g transform="translate(270.75325520833303 117.80929129464297) rotate(0 28.986002604166856 22.66601562499997)"><path d="M29.44 36.05 C38.38 38.96, 47.31 41.86, 57.97 45.33 M29.44 36.05 C38.77 39.08, 48.09 42.12, 57.97 45.33" stroke="#000000" stroke-width="1" fill="none"></path></g><g transform="translate(270.75325520833303 117.80929129464297) rotate(0 28.986002604166856 22.66601562499997)"><path d="M42.09 19.88 C47.06 27.85, 52.04 35.83, 57.97 45.33 M42.09 19.88 C47.28 28.2, 52.47 36.52, 57.97 45.33" stroke="#000000" stroke-width="1" fill="none"></path></g></g><mask></mask></svg>